<svg width="68" height="60" viewBox="0 0 68 60" fill="none" xmlns="http://www.w3.org/2000/svg">
<mask id="mask0" style="mask-type:alpha" maskUnits="userSpaceOnUse" x="4" y="0" width="60" height="60">
<circle cx="34" cy="30" r="30" fill="#DDF4F4"/>
</mask>
<g mask="url(#mask0)">
<circle cx="34" cy="30" r="30" fill="#DDF4F4"/>
<path d="M23.2584 24.7858L23.0586 60.853L40.243 60.7531L39.4437 24.7858H23.2584Z" fill="#C2E8ED"/>
<path d="M40.1432 61.0528L49.2349 61.1528L48.9352 25.7849L44.3394 19.5905L39.4438 24.7858L40.1432 61.0528Z" fill="#9BD9E2"/>
<path d="M25.4563 25.5851C24.2573 25.5851 23.4581 25.5851 23.3582 25.4852C23.1583 25.3853 23.0584 25.2854 23.0584 25.0856C22.9585 24.4861 24.8568 22.2881 28.7533 18.6914C28.7533 18.6914 28.8532 18.5915 28.9531 18.5915C30.4517 18.5915 43.5398 18.5915 44.3391 18.7913C44.5389 18.7913 44.6388 18.9911 44.6388 19.091C44.7388 19.2908 44.8387 19.9902 39.7433 25.0856C39.7433 25.0856 39.6434 25.1855 39.5435 25.1855C37.4454 25.2854 29.4526 25.5851 25.4563 25.5851ZM29.053 19.091C25.2564 22.5878 23.558 24.586 23.558 24.9856C24.0575 25.0856 32.1502 24.8857 39.3437 24.6859C42.6407 21.3889 44.0394 19.5906 44.0394 19.1909C43.5398 19.091 34.8477 19.091 29.053 19.091Z" fill="#00838A"/>
<path d="M44.239 19.3907C44.1391 19.3907 43.9393 19.2908 44.0392 19.091L44.1391 15.794L29.5524 16.2935L29.3526 18.7913C29.3526 18.8912 29.2527 18.9911 29.0528 18.9911C28.9529 18.9911 28.853 18.8912 28.853 18.6913L29.0528 15.9938C29.0528 15.8939 29.1528 15.794 29.2527 15.794L44.339 15.2944C44.4389 15.2944 44.4389 15.2944 44.5388 15.3943C44.6387 15.4943 44.6387 15.5942 44.6387 15.5942L44.5388 19.1909C44.5388 19.2908 44.4389 19.3907 44.239 19.3907Z" fill="#00838A"/>
<path d="M45.2381 33.1962C45.2381 33.1962 44.3762 59.5904 44.9149 60.2367C45.3458 60.8831 61.2901 60.3445 61.2901 60.3445C61.2901 60.3445 61.8287 34.1658 61.3978 33.5194C60.8591 32.873 45.2381 33.1962 45.2381 33.1962Z" fill="#00838A"/>
<path d="M45.9922 35.9972V35.4585L62.5828 35.3508V35.8895L45.9922 35.9972Z" fill="#026663"/>
<path d="M62.2594 37.6132L46.4229 37.3977V36.8591L62.2594 37.0745V37.6132Z" fill="#026663"/>
<path d="M60.1051 57.328L44.2686 57.0048V56.4662L60.1051 56.7893V57.328Z" fill="#026663"/>
<path d="M44.0929 57.7552L44.0737 58.2935L60.4391 58.877L60.4583 58.3386L44.0929 57.7552Z" fill="#026663"/>
<path d="M44.9149 44.4002C45.2381 44.1848 51.3787 40.5219 51.8097 40.5219C52.887 40.5219 61.5055 45.9085 61.5055 45.9085L61.3978 49.4636C61.3978 49.4636 52.5638 52.6955 51.9174 52.4801C50.7324 52.0492 44.9149 49.1404 44.8071 48.7095C44.8071 48.6018 44.9149 44.4002 44.9149 44.4002Z" fill="#65A5A6"/>
<path d="M45.0223 32.6575L44.9146 33.7348H62.1516L62.2593 32.7653C62.1516 32.7653 45.7764 32.6575 45.0223 32.6575Z" fill="#036B6B" fill-opacity="0.79"/>
<path d="M44.3763 59.9135L44.2686 60.9909H61.5056L61.6133 60.0213C61.5056 60.0213 45.2381 59.9135 44.3763 59.9135Z" fill="#036B6B" fill-opacity="0.79"/>
<path d="M8.2443 56.9747C8.86546 57.9065 9.90074 58.3206 10.8325 58.7347C14.5595 60.7017 19.4253 58.1135 20.2535 53.9724C20.6676 51.6948 20.2535 49.5207 18.8041 47.5537C17.3547 45.4832 14.0418 44.3444 11.4537 45.5867C9.69368 46.4149 8.65841 47.8643 7.72666 49.5207C7.72666 49.5207 7.41608 50.4525 7.31255 50.6595C7.20902 50.8666 6.89844 52.6266 6.89844 52.6266C6.89844 52.6266 7.41608 55.8359 8.2443 56.9747Z" fill="#FF0000"/>
<path d="M24.9123 37.5115C24.7053 36.8904 23.5665 36.3727 23.1524 35.8551C23.0488 35.7516 23.0488 35.648 23.0488 35.5445C23.0488 35.3374 23.4629 35.2339 23.7735 35.3374C24.0841 35.441 24.2912 35.5445 24.4982 35.7516C24.7053 35.9586 25.2229 36.3727 25.637 36.2692C25.9476 36.1657 26.0511 35.7516 26.1547 35.5445C26.2582 35.3374 26.2582 35.0269 26.3617 34.8198C26.3617 34.7163 26.4652 34.5092 26.5688 34.5092C26.6723 34.4057 26.9829 34.5092 27.0864 34.6127C27.1899 34.7163 27.2935 34.8198 27.397 34.9233C27.5005 35.1304 27.604 35.3374 27.5005 35.5445C27.5005 35.7516 27.2935 35.9586 27.2935 36.0621C27.1899 36.2692 27.2935 36.4762 27.5005 36.6833C27.7076 36.6833 27.9146 36.4762 28.0181 36.4762C28.2252 36.3727 28.4323 36.2692 28.6393 36.3727C28.9499 36.4762 29.1569 36.7868 28.9499 36.9939C28.7428 37.2009 28.5358 37.3045 28.2252 37.408C27.8111 37.615 27.0864 37.8221 26.8793 38.2362C26.8793 38.1327 25.9476 40.3068 24.9123 37.5115Z" fill="#265947"/>
<path d="M16.7335 45.8973C15.9053 47.8643 15.9053 49.9349 15.9053 52.1089C15.9053 53.5583 16.5264 55.0077 17.5617 56.043C17.9758 56.4571 18.2864 56.7677 18.7005 57.1818C19.4252 56.3536 20.0464 55.3183 20.2534 54.076C20.6675 51.7983 20.2534 49.6243 18.804 47.6572C18.3899 46.9326 17.5617 46.3114 16.7335 45.8973Z" fill="#B71000"/>
<path opacity="0.84" d="M29.8815 40.0997C32.4697 41.2385 33.9191 43.5161 34.7473 46.2078C35.5755 49.1066 35.3684 51.9019 33.9191 54.4901C32.3661 57.1818 30.0885 58.8382 27.0862 59.4594C23.2557 60.1841 20.1499 58.6312 17.6652 55.9394C16.63 54.9042 16.1123 53.4548 16.0088 52.0054C16.0088 49.7278 16.0088 47.4502 17.0441 45.3796C18.597 42.4809 21.0816 41.135 23.9804 39.168C24.7051 38.6503 24.8086 37.5115 24.8086 37.5115C25.4298 36.5798 26.051 36.2692 26.8792 36.8904C26.7757 36.9939 27.6039 39.0644 29.8815 40.0997Z" fill="#FF0000"/>
</g>
</svg>
