<svg width="68" height="60" viewBox="0 0 68 60" fill="none" xmlns="http://www.w3.org/2000/svg">
<mask id="mask0" style="mask-type:alpha" maskUnits="userSpaceOnUse" x="4" y="0" width="60" height="60">
<circle cx="34" cy="30" r="30" fill="#DDF4F4"/>
</mask>
<g mask="url(#mask0)">
<circle cx="34" cy="30" r="30" fill="#DDF4F4"/>
<path d="M32.1157 32.3686C31.0447 35.7763 30.3632 37.4314 28.416 40.2549C26.9555 42.3969 25.8846 44.0521 25.4951 46.4861C25.1057 48.9202 25.0083 57.0986 25.0083 58.3643C25.0083 60.5063 26.1766 60.9931 26.1766 60.9931L42.9229 60.7983C42.9229 60.7983 44.8702 48.336 43.6045 40.8391C42.7282 35.6789 38.1522 25.2612 38.1522 25.2612L32.8946 25.4559C32.8946 25.4559 33.1867 28.9609 32.1157 32.3686Z" fill="#00838A"/>
<path d="M26.3712 18.9326C26.858 19.2247 31.5314 21.172 32.0182 21.6588C32.505 22.1456 32.4076 23.8981 32.4076 23.8981H38.6388L38.7362 22.1456C38.7362 22.1456 42.728 21.9509 42.728 21.6588C42.728 20.9772 41.4623 17.3748 37.6652 16.0118C36.9837 15.7197 26.0791 16.0118 26.0791 16.0118L26.3712 18.9326Z" fill="#C8E8E9"/>
<path d="M32.4077 23.606C32.4077 24.5797 32.4077 26.9164 32.5051 26.9164C33.4787 26.9164 38.7363 27.0137 38.7363 26.7216C38.6389 26.0401 38.5415 23.9955 38.5415 23.606C38.6389 23.5087 32.4077 23.606 32.4077 23.606Z" fill="#004C52"/>
<path d="M24.7158 16.0118C24.7158 16.3039 24.7158 19.2247 25.0079 19.3221C25.3 19.4195 26.6631 19.3221 26.7604 19.3221C26.9551 19.4195 26.6631 15.9144 26.6631 15.9144C26.6631 15.9144 24.7158 15.9144 24.7158 16.0118Z" fill="#00838A"/>
<path d="M38.7363 26.7216C38.3468 25.8453 38.1521 25.2612 38.1521 25.2612L32.8945 25.4559C32.8945 25.4559 32.8945 26.0401 32.8945 26.9163C34.355 26.9163 38.2494 26.9163 38.7363 26.7216Z" fill="#013E3F"/>
<path d="M28.3184 19.3221C28.3184 19.3221 28.1237 20.7825 26.1764 23.0218C24.9107 24.3849 24.1318 25.5533 24.1318 25.748C24.1318 26.1374 25.1055 26.2348 26.4685 25.4559C29.292 23.8007 31.7261 21.2693 31.7261 21.2693L28.3184 19.3221Z" fill="#00838A"/>
<path d="M62.307 56.2594C62.307 56.2594 61.0379 48.6447 61.0379 45.6184C61.0379 42.592 62.0141 32.1463 62.0141 32.1463H41.5131C41.5131 32.1463 42.7822 42.2015 42.4894 45.6184C42.1965 49.0352 41.3179 56.2594 41.3179 56.2594H62.307Z" fill="#EFD803"/>
<path d="M41.2201 28.4366C40.8296 28.8271 41.513 32.1463 41.513 32.1463L42.4892 33.513L60.8425 33.3178L62.014 32.1463C62.014 32.1463 62.9902 29.0224 62.6974 28.7295C62.5021 28.4366 41.6106 27.9485 41.2201 28.4366Z" fill="#F9EB4D"/>
<path d="M41.3178 56.1617L41.1226 59.8714C41.1226 59.8714 61.8188 59.9691 62.2093 59.7738C62.5998 59.5786 62.2093 56.1617 62.2093 56.1617H41.3178Z" fill="#F9EB4D"/>
<path d="M63.1855 29.9986C62.9902 29.9986 42.0011 29.5105 41.0249 29.5105V29.0224C42.0011 28.9247 62.3069 29.5105 63.1855 29.5105V29.9986Z" fill="#E2CD05"/>
<path d="M62.7951 59.0904C55.5709 58.9928 41.9036 58.8952 41.4155 58.9928L41.3179 58.5047C41.5131 58.4071 53.1303 58.5047 62.7951 58.6023V59.0904Z" fill="#E2CD05"/>
<path d="M62.9902 31.0725C62.795 31.0725 42.3916 30.8772 40.9272 30.9748V30.4867C42.3916 30.3891 62.2092 30.5843 62.9902 30.5843V31.0725Z" fill="#E2CD05"/>
<path d="M61.9164 57.7237C51.8612 57.6261 47.0776 57.6261 44.5394 57.6261C42.294 57.6261 41.9035 57.6261 41.1226 57.5285V57.0403C41.8059 57.0403 42.1964 57.0403 44.4418 57.138C46.98 57.138 51.7635 57.138 61.8188 57.2356L61.9164 57.7237Z" fill="#E2CD05"/>
<path d="M42.4889 33.513L60.8422 33.3178L62.0137 32.1463H41.5127L42.4889 33.513Z" fill="#E2CD05"/>
<path opacity="0.43" d="M56.059 47.7661C54.7899 49.1328 53.3255 49.3281 51.6659 49.3281C50.2992 49.3281 48.5419 48.5471 47.761 47.3756C46.4919 45.6184 46.4919 44.2516 46.7847 42.0063C46.98 40.7372 47.6633 39.8586 48.7372 39.2728C50.2016 38.4918 51.6659 38.199 53.3255 38.3942C56.6447 38.6871 58.7924 42.1039 57.7186 45.2279C57.2305 46.2041 56.7423 47.1803 56.059 47.7661Z" fill="white"/>
<path d="M12.4062 59.5803C12.4062 59.5803 14.6204 60.8318 14.813 61.9871C17.9899 61.9871 25.4026 62.0833 25.4026 62.0833C25.4026 62.0833 25.4026 60.4467 27.4243 59.5803C21.7444 59.5803 12.4062 59.5803 12.4062 59.5803Z" fill="#C7C5B5"/>
<path d="M14.0427 36.8607L12.021 40.1339L12.4061 59.5803H27.4241C27.4241 59.5803 27.8092 40.6152 27.5204 40.1339C27.2316 39.6525 25.8838 37.0532 25.8838 37.0532L14.0427 36.8607Z" fill="#FF3008"/>
<path d="M26.0764 37.9197L13.7539 37.6309L13.9464 35.4167L26.1727 35.5129V37.9197H26.0764ZM14.139 37.2458L25.5951 37.5346V35.9943L14.2353 35.898L14.139 37.2458Z" fill="#C7C6B7"/>
<path d="M27.7123 39.816L12.7905 39.8743L12.7924 40.3557L27.7142 40.2974L27.7123 39.816Z" fill="#AA0A02"/>
</g>
</svg>
